<?xml version="1.0" standalone="no"?>
<!DOCTYPE svg PUBLIC "-//W3C//DTD SVG 20010904//EN"
 "http://www.w3.org/TR/2001/REC-SVG-20010904/DTD/svg10.dtd">
<svg version="1.0" xmlns="http://www.w3.org/2000/svg"
 width="80.000000pt" height="80.000000pt" viewBox="0 0 80.000000 80.000000"
 preserveAspectRatio="xMidYMid meet">
<metadata>
Created by potrace 1.11, written by Peter Selinger 2001-2013
</metadata>
<g transform="translate(0.000000,80.000000) scale(0.100000,-0.100000)"
fill="#000000" stroke="none">
<path d="M499 763 c-12 -20 -23 -48 -24 -62 -2 -36 24 -100 46 -111 28 -15 72
54 68 107 -2 21 -6 40 -9 43 -3 3 -13 17 -23 33 -23 36 -31 34 -58 -10z"/>
<path d="M290 630 c0 -10 6 -33 14 -51 33 -79 84 -108 179 -100 39 3 8 94 -47
136 -28 21 -49 28 -91 30 -46 1 -55 -1 -55 -15z"/>
<path d="M527 525 c-4 -8 -4 -23 -2 -34 2 -11 0 -23 -5 -26 -5 -3 -5 -18 -2
-33 10 -35 8 -180 -2 -190 -4 -4 -7 -2 -6 3 4 20 0 45 -7 44 -5 -1 -35 0 -68
1 -57 2 -58 3 -27 12 47 16 107 70 99 91 -6 16 -72 62 -89 62 -3 0 -9 3 -12 6
-11 10 -84 1 -113 -15 -32 -17 -83 -63 -83 -75 0 -25 138 -89 156 -73 4 4 5 1
2 -7 -2 -8 -13 -16 -24 -17 -28 -4 -93 -78 -100 -114 -4 -16 -10 -30 -14 -30
-16 0 -7 -48 10 -53 32 -8 144 1 148 12 2 6 11 11 19 11 22 0 81 68 88 101 9
38 30 37 30 -1 0 -16 -3 -30 -7 -30 -4 0 -3 -12 1 -27 4 -16 6 -51 4 -80 -2
-28 1 -54 7 -58 13 -8 12 -30 13 268 2 239 -2 291 -16 252z"/>
</g>
</svg>
